# xmcd
#
# Track frame offsets:
#	182
#	18192
#	38605
#	61120
#	83592
#	102980
#	124230
#	143880
#	158862
#	177135
#	196377
#	229545
#	249100
#	265225
#	283695
#	301902
#	329522
#
# Disc length: 4634 seconds
#
# Revision: 9
# Processed by: cddbd v1.5.1PL2 Copyright (c) Steve Scherf et al.
# Submitted via: audiograbber 1.83.01
#
DISCID=d9121811
DTITLE=Kenny G - Greatest Hits (Kenny G)
DYEAR=1997
DGENRE=Smooth Jazz
TTITLE0=Songbird
TTITLE1=Silhouette
TTITLE2=Forever In Love
TTITLE3=Everytime I Close My Eyes (ft. Babyface)
TTITLE4=Sentimental
TTITLE5=The Moment
TTITLE6=How Could An Angel Break My Heart (ft. Toni Braxton)
TTITLE7=Loving You
TTITLE8=You Send Me
TTITLE9=Going Home
TTITLE10=Havana
TTITLE11=By The Time This Night Is Over (ft. Peabo Bryson)
TTITLE12=Baby G
TTITLE13=Don't Make Me Wait For Love
TTITLE14=Theme From Dying Young
TTITLE15=All The Way /One For My Baby (And One For The Road) (ft. Frank Sinatra
TTITLE15=)
TTITLE16=Innocence
EXTD=YEAR: 1997 ID3G:   8
EXTT0=
EXTT1=
EXTT2=
EXTT3=
EXTT4=
EXTT5=
EXTT6=
EXTT7=
EXTT8=
EXTT9=
EXTT10=
EXTT11=
EXTT12=
EXTT13=
EXTT14=
EXTT15=
EXTT16=
PLAYORDER=
